<?xml version="1.0" standalone="no"?>
<!DOCTYPE svg PUBLIC "-//W3C//DTD SVG 20010904//EN"
 "http://www.w3.org/TR/2001/REC-SVG-20010904/DTD/svg10.dtd">
<svg version="1.0" xmlns="http://www.w3.org/2000/svg"
 width="128.000000pt" height="128.000000pt" viewBox="0 0 128.000000 128.000000"
 preserveAspectRatio="xMidYMid meet">

<g transform="translate(0.000000,128.000000) scale(0.100000,-0.100000)"
fill="#000000" stroke="none">
<path d="M0 640 l0 -640 640 0 640 0 0 640 0 640 -640 0 -640 0 0 -640z m434
391 c136 -78 152 -85 204 -85 54 -1 66 4 211 87 85 48 156 85 159 82 7 -7 -12
-105 -49 -247 -16 -62 -28 -124 -27 -138 1 -14 2 -61 2 -106 0 -69 -4 -87 -27
-126 -41 -71 -71 -101 -129 -133 -47 -27 -63 -30 -138 -30 -75 0 -91 3 -138
30 -58 31 -88 62 -128 130 -29 50 -42 158 -26 216 5 21 6 42 1 51 -11 20 -79
312 -79 339 0 25 -14 31 164 -70z"/>
</g>
</svg>
